<svg xmlns="http://www.w3.org/2000/svg" viewBox="0 0 64 64"><path fill="#faefde" d="M40 7A4 4 0 1 0 40 15 4 4 0 1 0 40 7zM23 7A4 4 0 1 0 23 15 4 4 0 1 0 23 7z"/><path fill="#8d6c9f" d="M40 16c-2.757 0-5-2.243-5-5s2.243-5 5-5 5 2.243 5 5S42.757 16 40 16zM40 8c-1.654 0-3 1.346-3 3s1.346 3 3 3 3-1.346 3-3S41.654 8 40 8zM23 16c-2.757 0-5-2.243-5-5s2.243-5 5-5 5 2.243 5 5S25.757 16 23 16zM23 8c-1.654 0-3 1.346-3 3s1.346 3 3 3 3-1.346 3-3S24.654 8 23 8z"/><path fill="#f283a5" d="M50 24h1.5c1.381 0 2.5-1.119 2.5-2.5l0 0c0-1.381-1.119-2.5-2.5-2.5H45M33 19H20c-4.418 0-8 3.582-8 8l0 0v10.5c0 1.381 1.119 2.5 2.5 2.5l0 0c1.381 0 2.5-1.119 2.5-2.5V27v13l-.834 15.847C16.076 57.561 17.441 59 19.158 59l0 0c1.593 0 2.908-1.247 2.992-2.838L23 40l1.012 16.162C24.096 57.753 25.411 59 27.004 59l0 0c1.716 0 3.082-1.439 2.992-3.153L29 40V27"/><path fill="#8d6c9f" d="M51.5 25H50v-2h1.5c.827 0 1.5-.673 1.5-1.5S52.327 20 51.5 20H41v-2h10.5c1.93 0 3.5 1.57 3.5 3.5S53.43 25 51.5 25zM14.5 41c-1.93 0-3.5-1.57-3.5-3.5V27c0-4.963 4.037-9 9-9h17c.553 0 1 .447 1 1s-.447 1-1 1H20c-3.859 0-7 3.141-7 7v10.5c0 .827.673 1.5 1.5 1.5s1.5-.673 1.5-1.5V27c0-.553.447-1 1-1s1 .447 1 1v10.5C18 39.43 16.43 41 14.5 41z"/><path fill="#8d6c9f" d="M27.004,60c-1.938,0-3.566-1.383-3.923-3.236C22.724,58.617,21.096,60,19.157,60 c-1.106,0-2.136-0.442-2.897-1.245c-0.763-0.804-1.15-1.854-1.093-2.961l0.834-15.847L16,37.167c0-0.553,0.447-1,1-1s1,0.447,1,1 V40l-0.835,15.899c-0.029,0.552,0.164,1.077,0.545,1.479S18.604,58,19.157,58c1.062,0,1.938-0.831,1.993-1.892l0.851-16.161 c0.028-0.529,0.464-0.944,0.994-0.947c0.002,0,0.003,0,0.005,0c0.527,0,0.965,0.41,0.998,0.938l1.013,16.161 c0.055,1.07,0.93,1.901,1.993,1.901c0.553,0,1.067-0.221,1.448-0.622s0.574-0.927,0.545-1.479l-0.995-15.837L28,27 c0-0.553,0.447-1,1-1s1,0.447,1,1v13l0.994,15.784c0.059,1.116-0.329,2.167-1.092,2.971C29.141,59.558,28.111,60,27.004,60z"/><path fill="#85cbf8" d="M46,37.167V40l0.834,15.847C46.924,57.561,45.559,59,43.842,59l0,0 c-1.593,0-2.908-1.247-2.992-2.838L40,40l-1.012,16.162C38.904,57.753,37.589,59,35.996,59l0,0c-1.716,0-3.082-1.439-2.992-3.153 L34,40V27v10.5c0,1.381-1.119,2.5-2.5,2.5l0,0c-1.381,0-2.5-1.119-2.5-2.5V27l0,0c0-4.418,3.582-8,8-8h6c4.418,0,8,3.582,8,8l0,0 v10.5c0,1.381-1.119,2.5-2.5,2.5l0,0c-1.381,0-2.5-1.119-2.5-2.5V27"/><path fill="#8d6c9f" d="M43.843 60c-1.938 0-3.564-1.381-3.923-3.233C39.565 58.615 37.937 60 35.996 60c-1.107 0-2.137-.442-2.898-1.245-.763-.804-1.15-1.854-1.093-2.961l.95-15.111C32.512 40.887 32.019 41 31.5 41c-1.93 0-3.5-1.57-3.5-3.5V27c0-4.963 4.037-9 9-9h6c4.963 0 9 4.037 9 9v10.5c0 1.93-1.57 3.5-3.5 3.5-.522 0-1.019-.115-1.464-.321l.797 15.115c.058 1.106-.33 2.157-1.093 2.961C45.979 59.558 44.949 60 43.843 60zM40 39c.002 0 .003 0 .005 0 .53.003.966.418.994.947l.851 16.161C41.905 57.169 42.781 58 43.843 58c.553 0 1.066-.221 1.447-.622s.574-.927.545-1.479l-.834-15.847L45 37.535c0-.012 0-.023 0-.035V27c0-.553.447-1 1-1s1 .447 1 1v10.5c0 .827.673 1.5 1.5 1.5s1.5-.673 1.5-1.5V27c0-3.859-3.141-7-7-7h-6c-3.859 0-7 3.141-7 7v10.5c0 .827.673 1.5 1.5 1.5s1.5-.673 1.5-1.5V27c0-.553.447-1 1-1s1 .447 1 1v13l-.998 15.909c-.028.542.165 1.067.546 1.469S35.443 58 35.996 58c1.062 0 1.938-.831 1.992-1.891l1.014-16.172C39.035 39.41 39.473 39 40 39zM6 32c-.553 0-1-.447-1-1v-2c0-.553.447-1 1-1s1 .447 1 1v2C7 31.553 6.553 32 6 32zM1 32c-.553 0-1-.447-1-1v-2c0-.553.447-1 1-1s1 .447 1 1v2C2 31.553 1.553 32 1 32zM11 32c-.553 0-1-.447-1-1v-2c0-.553.447-1 1-1s1 .447 1 1v2C12 31.553 11.553 32 11 32zM57 32c-.553 0-1-.447-1-1v-2c0-.553.447-1 1-1s1 .447 1 1v2C58 31.553 57.553 32 57 32z"/><path fill="#8d6c9f" d="M52 32c-.553 0-1-.447-1-1v-2c0-.553.447-1 1-1s1 .447 1 1v2C53 31.553 52.553 32 52 32zM62 32c-.553 0-1-.447-1-1v-2c0-.553.447-1 1-1s1 .447 1 1v2C63 31.553 62.553 32 62 32z"/></svg>