<?xml version="1.0" encoding="utf-8"?>
<svg width="200px" height="50px" viewBox="0 0 200 50" version="1.1" xmlns:xlink="http://www.w3.org/1999/xlink" xmlns="http://www.w3.org/2000/svg">
  <defs>
    <path d="M0 0L50 0L50 50L0 50L0 0Z" id="path_1" />
    <rect width="200" height="50" id="artboard_1" />
    <clipPath id="clip_1">
      <use xlink:href="#artboard_1" clip-rule="evenodd" />
    </clipPath>
    <clipPath id="mask_1">
      <use xlink:href="#path_1" />
    </clipPath>
  </defs>
  <g id="Artboard" clip-path="url(#clip_1)">
    <g id="friends" transform="translate(3 0)">
      <path d="M0 0L50 0L50 50L0 50L0 0Z" id="Background" fill="none" fill-rule="evenodd" stroke="none" />
      <g clip-path="url(#mask_1)">
        <path d="M16.4063 0C14.6804 0 13.2813 1.39911 13.2813 3.12499C13.2812 4.85088 14.6803 6.24999 16.4062 6.25C18.1321 6.25 19.5312 4.8509 19.5312 3.12502C19.5313 1.39913 18.1322 1.30385e-05 16.4063 0L16.4063 0ZM3.125 0C1.39911 0 4.47035e-06 1.39911 0 3.12499C-4.47035e-06 4.85088 1.3991 6.24999 3.12498 6.25C4.85087 6.25 6.24998 4.8509 6.24999 3.12502C6.25 1.39913 4.8509 1.3411e-05 3.12501 0L3.125 0Z" transform="translate(14.84375 5.46875)" id="Shape" fill="#FAEFDE" fill-rule="evenodd" stroke="none" />
        <path d="M17.1875 7.8125C15.0336 7.8125 13.2813 6.06016 13.2813 3.90625C13.2813 1.75234 15.0336 0 17.1875 0C19.3414 0 21.0938 1.75234 21.0938 3.90625C21.0938 6.06016 19.3414 7.8125 17.1875 7.8125L17.1875 7.8125ZM17.1875 1.5625C15.8953 1.5625 14.8438 2.61406 14.8438 3.90625C14.8438 5.19844 15.8953 6.25 17.1875 6.25C18.4797 6.25 19.5313 5.19844 19.5313 3.90625C19.5313 2.61406 18.4797 1.5625 17.1875 1.5625L17.1875 1.5625ZM3.90625 7.8125C1.75234 7.8125 0 6.06016 0 3.90625C0 1.75234 1.75234 0 3.90625 0C6.06016 0 7.8125 1.75234 7.8125 3.90625C7.8125 6.06016 6.06016 7.8125 3.90625 7.8125L3.90625 7.8125ZM3.90625 1.5625C2.61406 1.5625 1.5625 2.61406 1.5625 3.90625C1.5625 5.19844 2.61406 6.25 3.90625 6.25C5.19844 6.25 6.25 5.19844 6.25 3.90625C6.25 2.61406 5.19844 1.5625 3.90625 1.5625L3.90625 1.5625Z" transform="translate(14.0625 4.6875)" id="Shape" fill="#8D6C9F" fill-rule="evenodd" stroke="none" />
        <path d="M29.6875 3.90625L30.8594 3.90625C31.9383 3.90625 32.8125 3.03203 32.8125 1.95313L32.8125 1.95313C32.8125 0.874218 31.9383 0 30.8594 0L25.7813 0M16.4063 0L6.25 0C2.79844 0 0 2.79844 0 6.25L0 6.25L0 14.4531C0 15.532 0.874218 16.4063 1.95313 16.4063L1.95313 16.4063C3.03203 16.4063 3.90625 15.532 3.90625 14.4531L3.90625 6.25L3.90625 16.4063L3.25469 28.7867C3.18438 30.1258 4.25078 31.25 5.59219 31.25L5.59219 31.25C6.83672 31.25 7.86406 30.2758 7.92969 29.0328L8.59375 16.4063L9.38437 29.0328C9.45 30.2758 10.4773 31.25 11.7219 31.25L11.7219 31.25C13.0625 31.25 14.1297 30.1258 14.0594 28.7867L13.2813 16.4063L13.2813 6.25" transform="translate(9.375 14.84375)" id="Shape" fill="#F283A5" fill-rule="evenodd" stroke="none" />
        <path d="M31.6406 5.46875L30.4688 5.46875L30.4688 3.90625L31.6406 3.90625C32.2867 3.90625 32.8125 3.38047 32.8125 2.73438C32.8125 2.08828 32.2867 1.5625 31.6406 1.5625L23.4375 1.5625L23.4375 0L31.6406 0C33.1484 0 34.375 1.22656 34.375 2.73438C34.375 4.24219 33.1484 5.46875 31.6406 5.46875L31.6406 5.46875ZM2.73438 17.9688C1.22656 17.9688 0 16.7422 0 15.2344L0 7.03125C0 3.15391 3.15391 0 7.03125 0L20.3125 0C20.7445 0 21.0938 0.349219 21.0938 0.78125C21.0938 1.21328 20.7445 1.5625 20.3125 1.5625L7.03125 1.5625C4.01641 1.5625 1.5625 4.01641 1.5625 7.03125L1.5625 15.2344C1.5625 15.8805 2.08828 16.4063 2.73438 16.4063C3.38047 16.4063 3.90625 15.8805 3.90625 15.2344L3.90625 7.03125C3.90625 6.59922 4.25547 6.25 4.6875 6.25C5.11953 6.25 5.46875 6.59922 5.46875 7.03125L5.46875 15.2344C5.46875 16.7422 4.24219 17.9688 2.73438 17.9688L2.73438 17.9688Z" transform="translate(8.59375 14.0625)" id="Shape" fill="#8D6C9F" fill-rule="evenodd" stroke="none" />
        <path d="M9.25196 26.5625C7.7379 26.5625 6.46602 25.482 6.18712 24.0344C5.90821 25.482 4.63633 26.5625 3.12149 26.5625C2.25743 26.5625 1.45274 26.2172 0.858209 25.5898C0.262114 24.9617 -0.0402287 24.1414 0.00430197 23.2766L0.655864 10.8961L0.655083 8.72422C0.655083 8.29219 1.0043 7.94297 1.43633 7.94297C1.86836 7.94297 2.21758 8.29219 2.21758 8.72422L2.21758 10.9375L1.56524 23.3586C1.54258 23.7898 1.69337 24.2 1.99102 24.5141C2.28868 24.8281 2.68946 25 3.12149 25C3.95118 25 4.63555 24.3508 4.67852 23.5219L5.34336 10.8961C5.36524 10.4828 5.70587 10.1586 6.11993 10.1563C6.12149 10.1563 6.12227 10.1563 6.12383 10.1563C6.53555 10.1563 6.87774 10.4766 6.90352 10.8891L7.69493 23.5148C7.7379 24.3508 8.42149 25 9.25196 25C9.68399 25 10.0856 24.8273 10.3832 24.5141C10.6809 24.2008 10.8316 23.7898 10.809 23.3586L10.0316 10.9859L10.0301 0.78125C10.0301 0.349219 10.3793 0 10.8113 0C11.2434 0 11.5926 0.349219 11.5926 0.78125L11.5926 10.9375L12.3691 23.2687C12.4152 24.1406 12.1121 24.9617 11.516 25.5898C10.9215 26.2172 10.1168 26.5625 9.25196 26.5625L9.25196 26.5625Z" transform="translate(11.844925 20.3125)" id="Shape" fill="#8D6C9F" fill-rule="evenodd" stroke="none" />
        <path d="M13.2813 14.193L13.2813 16.4063L13.9328 28.7867C14.0031 30.1258 12.9367 31.25 11.5953 31.25L11.5953 31.25C10.3508 31.25 9.32344 30.2758 9.25781 29.0328L8.59375 16.4063L7.80312 29.0328C7.7375 30.2758 6.71016 31.25 5.46562 31.25L5.46562 31.25C4.125 31.25 3.05781 30.1258 3.12812 28.7867L3.90625 16.4063L3.90625 6.25L3.90625 14.4531C3.90625 15.532 3.03203 16.4063 1.95313 16.4063L1.95313 16.4063C0.874218 16.4063 0 15.532 0 14.4531L0 6.25L0 6.25C0 2.79844 2.79844 0 6.25 0L10.9375 0C14.3891 0 17.1875 2.79844 17.1875 6.25L17.1875 6.25L17.1875 14.4531C17.1875 15.532 16.3133 16.4063 15.2344 16.4063L15.2344 16.4063C14.1555 16.4063 13.2813 15.532 13.2813 14.4531L13.2813 6.25" transform="translate(22.65625 14.84375)" id="Shape" fill="#85CBF8" fill-rule="evenodd" stroke="none" />
        <path d="M34.2523 32.8125C32.7383 32.8125 31.468 31.7336 31.1875 30.2867C30.9102 31.7305 29.6383 32.8125 28.1219 32.8125C27.257 32.8125 26.4523 32.4672 25.8578 31.8398C25.2617 31.2117 24.9594 30.3914 25.0039 29.5266L25.7461 17.7211C25.4 17.8805 25.0148 17.9688 24.6094 17.9688C23.1016 17.9688 21.875 16.7422 21.875 15.2344L21.875 7.03125C21.875 3.15391 25.0289 0 28.9063 0L33.5938 0C37.4711 0 40.625 3.15391 40.625 7.03125L40.625 15.2344C40.625 16.7422 39.3984 17.9688 37.8906 17.9688C37.4828 17.9688 37.0945 17.8789 36.7469 17.718L37.3695 29.5266C37.4148 30.3906 37.1117 31.2117 36.5156 31.8398C35.9211 32.4672 35.1164 32.8125 34.2523 32.8125L34.2523 32.8125ZM31.25 16.4063C31.2516 16.4063 31.2523 16.4063 31.2539 16.4063C31.668 16.4086 32.0086 16.7328 32.0305 17.1461L32.6953 29.7719C32.7383 30.6008 33.4227 31.25 34.2523 31.25C34.6844 31.25 35.0852 31.0773 35.3828 30.7641C35.6805 30.4508 35.8312 30.0398 35.8086 29.6086L35.157 17.2281L35.1563 15.2617C35.1563 15.2523 35.1563 15.2438 35.1563 15.2344L35.1563 7.03125C35.1563 6.59922 35.5055 6.25 35.9375 6.25C36.3695 6.25 36.7188 6.59922 36.7188 7.03125L36.7188 15.2344C36.7188 15.8805 37.2445 16.4063 37.8906 16.4063C38.5367 16.4063 39.0625 15.8805 39.0625 15.2344L39.0625 7.03125C39.0625 4.01641 36.6086 1.5625 33.5938 1.5625L28.9063 1.5625C25.8914 1.5625 23.4375 4.01641 23.4375 7.03125L23.4375 15.2344C23.4375 15.8805 23.9633 16.4063 24.6094 16.4063C25.2555 16.4063 25.7813 15.8805 25.7813 15.2344L25.7813 7.03125C25.7813 6.59922 26.1305 6.25 26.5625 6.25C26.9945 6.25 27.3438 6.59922 27.3438 7.03125L27.3438 17.1875L26.5641 29.6164C26.5422 30.0398 26.693 30.45 26.9906 30.7641C27.2883 31.0781 27.6898 31.25 28.1219 31.25C28.9516 31.25 29.6359 30.6008 29.6781 29.7727L30.4703 17.1383C30.4961 16.7266 30.8383 16.4063 31.25 16.4063L31.25 16.4063ZM4.6875 10.9375C4.25547 10.9375 3.90625 10.5883 3.90625 10.1563L3.90625 8.59375C3.90625 8.16172 4.25547 7.8125 4.6875 7.8125C5.11953 7.8125 5.46875 8.16172 5.46875 8.59375L5.46875 10.1563C5.46875 10.5883 5.11953 10.9375 4.6875 10.9375L4.6875 10.9375ZM0.78125 10.9375C0.349219 10.9375 0 10.5883 0 10.1563L0 8.59375C0 8.16172 0.349219 7.8125 0.78125 7.8125C1.21328 7.8125 1.5625 8.16172 1.5625 8.59375L1.5625 10.1563C1.5625 10.5883 1.21328 10.9375 0.78125 10.9375L0.78125 10.9375ZM8.59375 10.9375C8.16172 10.9375 7.8125 10.5883 7.8125 10.1563L7.8125 8.59375C7.8125 8.16172 8.16172 7.8125 8.59375 7.8125C9.02578 7.8125 9.375 8.16172 9.375 8.59375L9.375 10.1563C9.375 10.5883 9.02578 10.9375 8.59375 10.9375L8.59375 10.9375ZM44.5313 10.9375C44.0992 10.9375 43.75 10.5883 43.75 10.1563L43.75 8.59375C43.75 8.16172 44.0992 7.8125 44.5313 7.8125C44.9633 7.8125 45.3125 8.16172 45.3125 8.59375L45.3125 10.1563C45.3125 10.5883 44.9633 10.9375 44.5313 10.9375L44.5313 10.9375Z" transform="translate(0 14.0625)" id="Shape" fill="#8D6C9F" fill-rule="evenodd" stroke="none" />
        <path d="M0.78125 3.125C0.349218 3.125 0 2.77578 0 2.34375L0 0.78125C0 0.349219 0.349218 0 0.78125 0C1.21328 0 1.5625 0.349219 1.5625 0.78125L1.5625 2.34375C1.5625 2.77578 1.21328 3.125 0.78125 3.125L0.78125 3.125ZM8.59375 3.125C8.16172 3.125 7.8125 2.77578 7.8125 2.34375L7.8125 0.78125C7.8125 0.349219 8.16172 0 8.59375 0C9.02578 0 9.375 0.349219 9.375 0.78125L9.375 2.34375C9.375 2.77578 9.02578 3.125 8.59375 3.125L8.59375 3.125Z" transform="translate(39.84375 21.875)" id="Shape" fill="#8D6C9F" fill-rule="evenodd" stroke="none" />
      </g>
    </g>
    <g id="AE-Cột-chèo" transform="translate(53 -6)">
      <path d="M60.117 15.134L57.651 15.854Q57.201 15.998 57.057 15.89Q56.913 15.782 56.913 15.296L56.913 13.838Q56.913 13.352 57.066 13.208Q57.219 13.064 57.651 12.884L59.955 12.056Q60.117 11.984 60.306 11.948Q60.495 11.912 60.657 11.894Q60.819 11.894 60.963 11.912Q61.107 11.93 61.233 11.984L63.699 12.884Q64.149 13.064 64.302 13.208Q64.455 13.352 64.455 13.838L64.455 15.296Q64.455 15.782 64.311 15.89Q64.167 15.998 63.699 15.854L61.233 15.134Q60.927 15.062 60.675 15.062Q60.423 15.062 60.117 15.134ZM117.195 15.926L110.913 15.152Q110.571 15.116 110.418 14.981Q110.265 14.846 110.265 14.504L110.265 12.776Q110.265 12.47 110.418 12.308Q110.571 12.146 110.877 12.182L117.159 12.956Q117.501 12.992 117.654 13.127Q117.807 13.262 117.807 13.604L117.807 15.332Q117.807 15.638 117.654 15.8Q117.501 15.962 117.195 15.926ZM66.291 26.078Q66.291 26.906 66.048 27.581Q65.805 28.256 65.184 28.733Q64.563 29.21 63.474 29.48Q62.385 29.75 60.711 29.75Q59.037 29.75 57.939 29.48Q56.841 29.21 56.22 28.733Q55.599 28.256 55.356 27.581Q55.113 26.906 55.113 26.078L55.113 19.94Q55.113 19.112 55.356 18.437Q55.599 17.762 56.22 17.276Q56.841 16.79 57.939 16.52Q59.037 16.25 60.711 16.25Q62.385 16.25 63.474 16.52Q64.563 16.79 65.184 17.276Q65.805 17.762 66.048 18.437Q66.291 19.112 66.291 19.94L66.291 26.078ZM131.91 27.581Q132.153 26.906 132.153 26.078L132.153 19.94Q132.153 19.112 131.91 18.437Q131.667 17.762 131.046 17.276Q130.425 16.79 129.336 16.52Q128.247 16.25 126.573 16.25Q124.899 16.25 123.801 16.52Q122.703 16.79 122.082 17.276Q121.461 17.762 121.218 18.437Q120.975 19.112 120.975 19.94L120.975 26.078Q120.975 26.906 121.218 27.581Q121.461 28.256 122.082 28.733Q122.703 29.21 123.801 29.48Q124.899 29.75 126.573 29.75Q128.247 29.75 129.336 29.48Q130.425 29.21 131.046 28.733Q131.667 28.256 131.91 27.581ZM18.717 28.832Q18.717 29.174 18.564 29.327Q18.411 29.48 18.069 29.48L15.423 29.48Q15.081 29.48 14.928 29.327Q14.775 29.174 14.775 28.832L14.775 24.08Q14.775 23.54 14.946 22.838Q15.117 22.136 15.477 21.2L17.043 17.114Q17.151 16.808 17.376 16.664Q17.601 16.52 17.961 16.52L22.803 16.52Q23.145 16.52 23.37 16.664Q23.595 16.808 23.703 17.114L25.269 21.2Q25.629 22.136 25.8 22.838Q25.971 23.54 25.971 24.08L25.971 28.832Q25.971 29.174 25.818 29.327Q25.665 29.48 25.323 29.48L22.605 29.48Q22.245 29.48 22.074 29.327Q21.903 29.174 21.903 28.832L21.903 26.312L18.717 26.312L18.717 28.832ZM37.185 29.48L28.833 29.48Q28.491 29.48 28.338 29.327Q28.185 29.174 28.185 28.832L28.185 17.168Q28.185 16.826 28.338 16.673Q28.491 16.52 28.833 16.52L37.185 16.52Q37.527 16.52 37.68 16.673Q37.833 16.826 37.833 17.168L37.833 19.274Q37.833 19.616 37.68 19.769Q37.527 19.922 37.185 19.922L32.217 19.922L32.217 21.308L35.727 21.308Q36.069 21.308 36.222 21.461Q36.375 21.614 36.375 21.956L36.375 23.882Q36.375 24.224 36.222 24.377Q36.069 24.53 35.727 24.53L32.217 24.53L32.217 26.078L37.185 26.078Q37.527 26.078 37.68 26.231Q37.833 26.384 37.833 26.726L37.833 28.832Q37.833 29.174 37.68 29.327Q37.527 29.48 37.185 29.48ZM48.237 29.48L52.629 29.48Q52.971 29.48 53.124 29.327Q53.277 29.174 53.277 28.832L53.277 26.69Q53.277 26.348 53.124 26.195Q52.971 26.042 52.629 26.042L49.011 26.042Q48.453 26.042 48.183 25.835Q47.913 25.628 47.913 25.178L47.913 20.894Q47.913 20.444 48.183 20.219Q48.453 19.994 49.011 19.994L52.629 19.994Q52.971 19.994 53.124 19.841Q53.277 19.688 53.277 19.346L53.277 17.168Q53.277 16.826 53.124 16.673Q52.971 16.52 52.629 16.52L48.237 16.52Q45.987 16.52 44.898 17.429Q43.809 18.338 43.809 20.21L43.809 25.808Q43.809 27.68 44.898 28.58Q45.987 29.48 48.237 29.48ZM71.781 29.48L74.697 29.48Q75.039 29.48 75.192 29.327Q75.345 29.174 75.345 28.832L75.345 19.994L77.991 19.994Q78.333 19.994 78.486 19.841Q78.639 19.688 78.639 19.346L78.639 17.168Q78.639 16.826 78.486 16.673Q78.333 16.52 77.991 16.52L68.487 16.52Q68.145 16.52 67.992 16.673Q67.839 16.826 67.839 17.168L67.839 19.346Q67.839 19.688 67.992 19.841Q68.145 19.994 68.487 19.994L71.133 19.994L71.133 28.832Q71.133 29.174 71.286 29.327Q71.439 29.48 71.781 29.48ZM93.057 29.48L88.665 29.48Q86.415 29.48 85.326 28.58Q84.237 27.68 84.237 25.808L84.237 20.21Q84.237 18.338 85.326 17.429Q86.415 16.52 88.665 16.52L93.057 16.52Q93.399 16.52 93.552 16.673Q93.705 16.826 93.705 17.168L93.705 19.346Q93.705 19.688 93.552 19.841Q93.399 19.994 93.057 19.994L89.439 19.994Q88.881 19.994 88.611 20.219Q88.341 20.444 88.341 20.894L88.341 25.178Q88.341 25.628 88.611 25.835Q88.881 26.042 89.439 26.042L93.057 26.042Q93.399 26.042 93.552 26.195Q93.705 26.348 93.705 26.69L93.705 28.832Q93.705 29.174 93.552 29.327Q93.399 29.48 93.057 29.48ZM96.387 29.48L99.177 29.48Q99.519 29.48 99.672 29.327Q99.825 29.174 99.825 28.832L99.825 24.836L102.831 24.836L102.831 28.832Q102.831 29.174 102.984 29.327Q103.137 29.48 103.479 29.48L106.269 29.48Q106.611 29.48 106.764 29.327Q106.917 29.174 106.917 28.832L106.917 17.168Q106.917 16.826 106.764 16.673Q106.611 16.52 106.269 16.52L103.479 16.52Q103.137 16.52 102.984 16.673Q102.831 16.826 102.831 17.168L102.831 21.074L99.825 21.074L99.825 17.168Q99.825 16.826 99.672 16.673Q99.519 16.52 99.177 16.52L96.387 16.52Q96.045 16.52 95.892 16.673Q95.739 16.826 95.739 17.168L95.739 28.832Q95.739 29.174 95.892 29.327Q96.045 29.48 96.387 29.48ZM118.401 29.48L110.049 29.48Q109.707 29.48 109.554 29.327Q109.401 29.174 109.401 28.832L109.401 17.168Q109.401 16.826 109.554 16.673Q109.707 16.52 110.049 16.52L118.401 16.52Q118.743 16.52 118.896 16.673Q119.049 16.826 119.049 17.168L119.049 19.274Q119.049 19.616 118.896 19.769Q118.743 19.922 118.401 19.922L113.433 19.922L113.433 21.308L116.943 21.308Q117.285 21.308 117.438 21.461Q117.591 21.614 117.591 21.956L117.591 23.882Q117.591 24.224 117.438 24.377Q117.285 24.53 116.943 24.53L113.433 24.53L113.433 26.078L118.401 26.078Q118.743 26.078 118.896 26.231Q119.049 26.384 119.049 26.726L119.049 28.832Q119.049 29.174 118.896 29.327Q118.743 29.48 118.401 29.48ZM59.199 25.43Q59.199 25.79 59.469 26.033Q59.739 26.276 60.711 26.276Q61.683 26.276 61.953 26.033Q62.223 25.79 62.223 25.43L62.223 20.588Q62.223 20.246 61.953 20.003Q61.683 19.76 60.711 19.76Q59.739 19.76 59.469 20.003Q59.199 20.246 59.199 20.588L59.199 25.43ZM125.331 26.033Q125.061 25.79 125.061 25.43L125.061 20.588Q125.061 20.246 125.331 20.003Q125.601 19.76 126.573 19.76Q127.545 19.76 127.815 20.003Q128.085 20.246 128.085 20.588L128.085 25.43Q128.085 25.79 127.815 26.033Q127.545 26.276 126.573 26.276Q125.601 26.276 125.331 26.033ZM19.743 20.3L18.897 23.036L21.723 23.036L20.877 20.3Q20.805 20.138 20.724 20.066Q20.643 19.994 20.535 19.994L20.085 19.994Q19.977 19.994 19.896 20.066Q19.815 20.138 19.743 20.3ZM59.289 33.8Q58.947 33.8 58.794 33.647Q58.641 33.494 58.641 33.152L58.641 30.866Q58.641 30.524 58.794 30.371Q58.947 30.218 59.289 30.218L62.133 30.218Q62.475 30.218 62.628 30.371Q62.781 30.524 62.781 30.866L62.781 33.152Q62.781 33.494 62.628 33.647Q62.475 33.8 62.133 33.8L59.289 33.8Z" />
    </g>
    <g id="Nhà-tui-ba-đời-bán-dế-giá-rẻ" transform="translate(52.5 31)">
      <path d="M108.979 3.403Q109.063 3.165 109.336 3.165Q109.609 3.165 109.77 3.333Q109.931 3.501 109.931 3.606Q109.931 3.711 109.903 3.781Q109.679 4.411 109.154 4.971Q108.629 5.531 108.349 5.531Q108.069 5.531 107.929 5.391Q107.789 5.251 107.789 5.062Q107.789 4.873 108.013 4.691Q108.755 4.089 108.979 3.403ZM15.641 9.591L15.753 12.895Q15.753 13.511 15.697 13.609Q15.669 13.861 15.536 14.001Q15.403 14.141 15.025 14.141Q14.843 14.141 14.731 13.91Q14.619 13.679 14.605 13.385Q14.507 10.921 14.346 8.758Q14.185 6.595 14.185 4.733Q14.185 4.439 14.381 4.271Q14.577 4.103 14.843 4.103Q15.235 4.103 15.312 4.775Q15.389 5.447 15.41 6.455Q15.431 7.463 15.459 7.925Q16.159 7.561 16.859 7.561Q18.483 7.561 18.917 8.989Q19.169 9.801 19.169 11.075Q19.169 11.495 19.092 12.398Q19.015 13.301 19.001 13.567Q18.987 13.833 18.77 13.98Q18.553 14.127 18.301 14.127Q17.909 14.127 17.909 13.707L18.007 11.271Q18.007 10.963 17.979 10.249Q17.951 9.535 17.692 9.115Q17.433 8.695 16.789 8.695Q15.641 8.695 15.641 9.591ZM46.231 4.103Q45.531 4.103 45.531 4.663Q45.531 6.245 45.608 9.416Q45.685 12.587 45.685 13.364Q45.685 14.141 47.057 14.141Q48.429 14.141 49.304 13.196Q50.179 12.251 50.179 10.879Q50.179 9.507 49.437 8.597Q48.695 7.687 47.337 7.687Q46.903 7.687 46.623 7.771Q46.609 7.183 46.609 6.595L46.609 4.495Q46.553 4.103 46.231 4.103ZM78.305 4.663Q78.305 4.103 79.005 4.103Q79.327 4.103 79.383 4.495L79.383 6.595Q79.383 7.183 79.397 7.771Q79.677 7.687 80.111 7.687Q81.469 7.687 82.211 8.597Q82.953 9.507 82.953 10.879Q82.953 12.251 82.078 13.196Q81.203 14.141 79.831 14.141C78.9163 14.141 78.459 13.882 78.459 13.364Q78.459 12.587 78.382 9.416Q78.305 6.245 78.305 4.663ZM62.989 5.587L61.463 5.545Q60.889 5.545 60.889 6.259Q60.889 6.623 61.351 6.651Q62.639 6.721 63.325 6.721L63.325 7.575Q63.129 7.547 62.919 7.547Q62.345 7.547 61.729 7.813Q60.735 8.247 60.266 9.248Q59.797 10.249 59.797 11.397Q59.797 12.545 60.448 13.329C60.882 13.8517 61.449 14.113 62.149 14.113C62.6997 14.113 63.1757 13.9543 63.577 13.637Q63.577 14.225 63.997 14.225Q64.627 14.225 64.627 13.805Q64.627 12.279 64.459 8.919Q64.459 8.317 64.403 6.693L64.977 6.651Q65.523 6.595 65.523 6.105Q65.523 5.909 65.516 5.811Q65.509 5.713 65.362 5.608Q65.215 5.503 65.019 5.517L64.375 5.559Q64.347 4.663 64.333 4.537Q64.277 4.117 63.794 4.117Q63.311 4.117 63.311 4.873L63.311 5.587L62.989 5.587ZM102.413 4.873L102.427 7.575Q102.231 7.547 102.021 7.547Q101.447 7.547 100.831 7.813Q99.837 8.247 99.368 9.248Q98.899 10.249 98.899 11.397Q98.899 12.545 99.55 13.329Q100.201 14.113 101.251 14.113Q102.077 14.113 102.679 13.637Q102.679 14.225 103.099 14.225Q103.729 14.225 103.729 13.805Q103.729 12.279 103.638 10.515Q103.547 8.751 103.505 6.735Q103.463 4.719 103.435 4.537Q103.379 4.117 102.896 4.117Q102.413 4.117 102.413 4.873ZM29.081 7.589L29.781 7.603Q30.019 7.603 30.047 7.589L30.047 4.719Q30.061 4.481 30.285 4.313Q30.509 4.145 30.705 4.145Q30.901 4.145 31.02 4.271Q31.139 4.397 31.125 4.663Q31.111 4.929 31.111 7.575L32.749 7.519Q33.169 7.519 33.169 8.009Q33.169 8.373 32.952 8.555Q32.735 8.737 32.49 8.751Q32.245 8.765 32.007 8.765L31.153 8.751Q31.153 9.325 31.272 11.019Q31.391 12.713 31.461 13.21Q31.531 13.707 31.489 13.854Q31.447 14.001 31.335 14.057Q31.153 14.141 30.845 14.141C30.6397 14.141 30.5183 14.029 30.481 13.805Q30.201 11.971 30.103 8.765Q29.977 8.779 29.137 8.779Q28.5103 8.779 28.3511 8.50622Q28.297 8.4134 28.297 8.289Q28.297 7.589 29.081 7.589ZM86.81 4.607Q86.537 4.607 86.453 4.845Q86.229 5.531 85.473 6.147Q85.263 6.315 85.263 6.504Q85.263 6.693 85.403 6.833Q85.543 6.973 85.823 6.973Q86.103 6.973 86.628 6.413Q87.153 5.853 87.377 5.223Q87.405 5.153 87.405 5.048Q87.405 4.943 87.244 4.775Q87.083 4.607 86.81 4.607ZM125.464 4.607Q125.191 4.607 125.107 4.845Q124.883 5.531 124.127 6.147Q123.917 6.315 123.917 6.504Q123.917 6.693 124.057 6.833Q124.197 6.973 124.477 6.973Q124.757 6.973 125.282 6.413Q125.807 5.853 126.031 5.223Q126.059 5.153 126.059 5.048Q126.059 4.943 125.898 4.775Q125.737 4.607 125.464 4.607ZM23.054 7.127Q23.243 7.127 23.369 6.931Q23.481 6.819 23.453 6.567Q23.425 6.315 23.201 6.203Q22.767 5.979 22.403 5.37Q22.039 4.761 21.829 4.705Q21.773 4.691 21.675 4.691Q21.577 4.691 21.416 4.782Q21.255 4.873 21.227 4.992Q21.199 5.111 21.199 5.244Q21.199 5.377 21.388 5.734Q21.577 6.091 21.962 6.469Q22.347 6.847 22.606 6.987Q22.865 7.127 23.054 7.127ZM68.848 6.987Q68.589 6.847 68.204 6.469Q67.819 6.091 67.637 5.734Q67.455 5.377 67.455 5.244Q67.455 5.111 67.476 4.992Q67.497 4.873 67.658 4.782Q67.819 4.691 67.917 4.691Q68.015 4.691 68.071 4.705Q68.281 4.761 68.645 5.37Q69.009 5.979 69.443 6.203Q69.667 6.315 69.695 6.567Q69.723 6.819 69.611 6.931Q69.485 7.127 69.296 7.127Q69.107 7.127 68.848 6.987ZM12.085 4.943Q12.225 4.859 12.449 4.859Q12.673 4.859 12.855 5.048Q13.037 5.237 13.037 5.489Q13.037 10.963 13.086 12.104Q13.135 13.245 13.135 13.273Q13.135 13.581 12.967 13.854Q12.799 14.127 12.596 14.127Q12.393 14.127 12.288 14.106Q12.183 14.085 12.099 14.057Q12.015 14.029 11.931 13.945L11.791 13.805Q11.735 13.749 11.644 13.588Q11.553 13.427 11.497 13.329Q11.441 13.231 11.322 12.986Q11.203 12.741 10.804 11.985Q10.405 11.229 10.083 10.627Q8.977 8.597 8.025 7.421Q8.025 11.971 7.773 13.735Q7.731 14.071 7.255 14.071Q7.031 14.071 6.884 13.959Q6.737 13.847 6.737 13.595Q6.737 13.343 6.842 10.823Q6.947 8.303 6.947 7.68L6.947 6.889Q6.947 5.881 7.101 5.755Q7.255 5.629 7.423 5.629Q8.193 5.629 9.775 8.149Q10.083 8.639 10.951 10.2Q11.819 11.761 11.987 12.125L11.819 6.315Q11.819 5.111 12.085 4.943ZM139.639 5.188Q139.387 4.901 138.925 4.901L138.883 4.901Q138.561 4.901 138.302 5.118Q138.043 5.335 138.001 5.559Q137.959 5.783 138.071 5.923Q138.197 6.063 138.33 6.063Q138.463 6.063 138.533 5.986Q138.603 5.909 138.652 5.825Q138.701 5.741 138.75 5.678Q138.799 5.615 138.911 5.615Q139.04 5.64538 139.083 5.72315Q139.119 5.78873 139.093 5.888Q139.037 6.105 138.82 6.364Q138.603 6.623 138.561 6.917Q138.519 7.113 138.701 7.183Q138.771 7.211 138.855 7.211Q139.121 7.211 139.387 6.791Q139.807 6.077 139.849 5.965Q139.891 5.853 139.891 5.664Q139.891 5.475 139.639 5.188ZM104.947 6.336Q104.947 6.119 105.661 5.559Q106.375 4.999 106.69 4.999Q107.005 4.999 107.691 5.524Q108.377 6.049 108.377 6.371Q108.377 6.567 108.209 6.707Q108.041 6.847 107.929 6.847Q107.817 6.847 107.306 6.399Q106.795 5.951 106.669 5.951Q106.543 5.951 106.074 6.413Q105.605 6.875 105.409 6.875Q105.213 6.875 105.08 6.714Q104.947 6.553 104.947 6.336ZM40.071 5.279Q40.323 5.279 40.547 5.517Q40.771 5.755 40.771 6.014Q40.771 6.273 40.526 6.539Q40.281 6.805 40.015 6.805Q39.749 6.805 39.532 6.581Q39.315 6.357 39.315 6.007Q39.315 5.335 40.043 5.279L40.071 5.279ZM73.321 5.517Q73.097 5.279 72.845 5.279L72.817 5.279Q72.089 5.335 72.089 6.007Q72.089 6.357 72.306 6.581Q72.523 6.805 72.789 6.805Q73.055 6.805 73.3 6.539Q73.545 6.273 73.545 6.014Q73.545 5.755 73.321 5.517ZM120.487 5.279Q120.739 5.279 120.963 5.517Q121.187 5.755 121.187 6.014Q121.187 6.273 120.942 6.539Q120.697 6.805 120.431 6.805Q120.165 6.805 119.948 6.581Q119.731 6.357 119.731 6.007Q119.731 5.335 120.459 5.279L120.487 5.279ZM90.065 13.693L89.911 8.009Q89.911 7.743 90.093 7.575Q90.275 7.407 90.457 7.407Q90.905 7.407 90.975 7.785Q91.031 8.163 91.031 8.569Q91.787 7.575 92.921 7.575Q94.657 7.575 94.657 11.537L94.657 12.636Q94.657 13.371 94.573 13.707C94.5077 13.987 94.307 14.127 93.971 14.127Q93.8501 14.127 93.7726 14.0689Q93.635 13.9657 93.635 13.679L93.649 12.895Q93.649 11.271 93.544 10.676Q93.439 10.081 93.341 9.731Q93.103 8.975 92.571 8.975Q91.871 8.975 91.591 9.479Q91.283 10.025 91.227 10.767Q91.129 12.069 91.129 13.525Q91.129 13.805 90.919 13.973Q90.709 14.141 90.415 14.141C90.1817 14.141 90.065 13.9917 90.065 13.693ZM40.659 12.615L40.673 13.595Q40.673 13.861 40.463 14.036Q40.253 14.211 40.015 14.211Q39.665 14.211 39.651 13.861Q39.469 9.395 39.469 8.919Q39.469 8.443 39.511 7.757Q39.539 7.505 39.833 7.505Q40.575 7.505 40.673 8.107Q40.715 8.415 40.715 8.597L40.659 9.479L40.659 12.615ZM73.447 13.595L73.433 12.615L73.433 9.479L73.489 8.597Q73.489 8.415 73.447 8.107Q73.349 7.505 72.607 7.505Q72.313 7.505 72.285 7.757Q72.243 8.443 72.243 8.919Q72.243 9.395 72.425 13.861Q72.439 14.211 72.789 14.211Q73.027 14.211 73.237 14.036Q73.447 13.861 73.447 13.595ZM121.075 12.615L121.089 13.595Q121.089 13.861 120.879 14.036Q120.669 14.211 120.431 14.211Q120.081 14.211 120.067 13.861Q119.885 9.395 119.885 8.919Q119.885 8.443 119.927 7.757Q119.955 7.505 120.249 7.505Q120.991 7.505 121.089 8.107Q121.131 8.415 121.131 8.597L121.075 9.479L121.075 12.615ZM133.213 12.083L133.227 13.525Q133.227 13.777 132.996 13.987Q132.765 14.197 132.541 14.197Q132.219 14.197 132.135 13.693Q132.121 13.581 132.023 11.642Q131.925 9.703 131.645 8.597Q131.519 8.065 131.519 7.967Q131.519 7.505 132.079 7.505Q132.317 7.505 132.457 7.687Q132.597 7.869 132.632 8.058Q132.667 8.247 132.695 8.569Q132.723 8.891 132.737 8.975Q133.031 8.275 133.619 7.925Q134.207 7.575 134.907 7.575Q136.055 7.575 136.055 8.163Q136.055 8.457 135.852 8.632Q135.649 8.807 135.383 8.807Q134.193 8.807 133.703 9.563Q133.213 10.319 133.213 12.083ZM33.757 7.736Q33.575 7.897 33.519 8.135Q33.407 9.633 33.407 10.655Q33.407 11.677 33.771 12.839Q33.981 13.441 34.345 13.791C34.5877 14.0243 34.863 14.141 35.171 14.141C35.8337 14.141 36.4917 13.8003 37.145 13.119Q37.257 13.679 37.285 13.959Q37.383 14.295 37.684 14.295Q37.985 14.295 38.174 14.162Q38.363 14.029 38.363 13.882Q38.363 13.735 38.335 13.623Q38.181 13.091 38.034 11.131Q37.887 9.171 37.887 8.177Q37.887 7.589 37.453 7.589Q37.187 7.589 36.998 7.799Q36.809 8.009 36.809 8.303Q36.809 9.745 36.977 11.761Q36.725 12.223 36.144 12.643Q35.563 13.063 35.185 13.063Q34.933 13.063 34.723 11.936Q34.513 10.809 34.513 9.934Q34.513 9.059 34.597 7.967Q34.569 7.827 34.548 7.771Q34.527 7.715 34.422 7.645Q34.317 7.575 34.128 7.575Q33.939 7.575 33.757 7.736ZM24.545 8.639Q24.545 7.589 23.929 7.589Q23.607 7.589 23.425 7.841Q22.865 7.645 22.305 7.645Q21.115 7.645 20.478 8.513Q19.841 9.381 19.841 11.075Q19.841 13.2268 20.8223 13.8615Q21.2328 14.127 21.815 14.127Q22.879 14.127 23.523 13.441Q23.607 13.665 23.558 13.847Q23.509 14.029 23.572 14.155Q23.635 14.281 23.796 14.281L23.999 14.281Q24.713 14.281 24.713 13.931L24.503 10.767Q24.503 10.319 24.517 9.857L24.545 8.877L24.545 8.639ZM55.177 7.589Q55.793 7.589 55.793 8.639L55.793 8.877L55.765 9.857Q55.751 10.319 55.751 10.767L55.961 13.931Q55.961 14.281 55.247 14.281L55.044 14.281Q54.883 14.281 54.82 14.155Q54.757 14.029 54.806 13.847Q54.855 13.665 54.771 13.441Q54.127 14.127 53.063 14.127Q51.089 14.127 51.089 11.075Q51.089 9.381 51.726 8.513Q52.363 7.645 53.553 7.645Q54.113 7.645 54.673 7.841Q54.855 7.589 55.177 7.589ZM88.567 8.639Q88.567 7.589 87.951 7.589Q87.629 7.589 87.447 7.841Q86.887 7.645 86.327 7.645Q85.137 7.645 84.5 8.513Q83.863 9.381 83.863 11.075C83.863 13.1097 84.521 14.127 85.837 14.127Q86.901 14.127 87.545 13.441Q87.629 13.665 87.58 13.847Q87.531 14.029 87.594 14.155Q87.657 14.281 87.818 14.281L88.021 14.281Q88.735 14.281 88.735 13.931L88.525 10.767Q88.525 10.319 88.539 9.857L88.567 8.877L88.567 8.639ZM127.221 8.639Q127.221 7.589 126.605 7.589Q126.283 7.589 126.101 7.841Q125.541 7.645 124.981 7.645Q123.791 7.645 123.154 8.513Q122.517 9.381 122.517 11.075C122.517 13.1097 123.175 14.127 124.491 14.127Q125.555 14.127 126.199 13.441Q126.283 13.665 126.234 13.847Q126.185 14.029 126.248 14.155Q126.311 14.281 126.472 14.281L126.675 14.281Q127.389 14.281 127.389 13.931L127.179 10.767Q127.179 10.319 127.193 9.857L127.221 8.877L127.221 8.639ZM72.033 8.247Q72.033 8.891 71.725 9.304Q71.417 9.717 70.955 9.913Q71.067 10.473 71.067 11.005Q71.067 12.237 70.402 13.189C69.9587 13.8237 69.3707 14.141 68.638 14.141Q67.539 14.141 66.867 13.168Q66.195 12.195 66.195 11.005Q66.195 9.479 66.811 8.569Q67.469 7.603 68.743 7.603Q69.345 7.603 69.842 7.96Q70.339 8.317 70.647 8.961Q71.025 8.737 71.109 8.107Q71.137 7.967 71.256 7.799Q71.375 7.631 71.487 7.631Q71.823 7.631 71.928 7.792Q72.033 7.953 72.033 8.247ZM116.077 14.141C116.59 14.141 117.015 13.945 117.351 13.553Q117.407 14.183 117.407 15.835Q117.407 17.487 116.399 17.487Q116.077 17.487 115.342 17.179Q114.607 16.871 114.397 16.871Q114.187 16.871 114.026 17.025Q113.865 17.179 113.865 17.473Q113.865 17.879 114.621 18.187Q115.377 18.495 116.105 18.495Q117.323 18.495 117.918 17.928Q118.513 17.361 118.513 16.157Q118.513 15.429 118.436 13.994Q118.359 12.559 118.359 11.747L118.387 10.599Q118.387 9.157 118.009 8.443Q117.575 7.631 116.385 7.631Q115.195 7.631 114.383 8.52Q113.571 9.409 113.571 10.879Q113.571 12.755 114.747 13.665C115.12 13.9823 115.564 14.141 116.077 14.141ZM106.557 7.645Q107.299 7.645 107.971 8.079Q108.643 8.513 108.643 9.15Q108.643 9.787 108.097 10.382Q107.551 10.977 106.641 11.103Q106.249 11.159 105.465 11.159Q105.619 12.349 106.067 12.727Q106.207 12.881 106.445 12.881Q107.313 12.881 107.901 12.328Q108.489 11.775 108.741 11.775Q108.853 11.775 109.077 11.985Q109.301 12.195 109.301 12.377Q109.301 12.741 108.419 13.427Q108.027 13.749 107.474 13.966Q106.921 14.183 106.445 14.183C105.633 14.183 105.036 13.6603 104.653 12.615Q104.289 11.649 104.289 10.487Q104.289 9.325 104.835 8.485Q105.381 7.645 106.557 7.645ZM140.227 8.079Q139.555 7.645 138.813 7.645Q137.637 7.645 137.091 8.485Q136.545 9.325 136.545 10.487Q136.545 11.649 136.909 12.615C137.292 13.6603 137.889 14.183 138.701 14.183Q139.177 14.183 139.73 13.966Q140.283 13.749 140.675 13.427Q141.557 12.741 141.557 12.377Q141.557 12.195 141.333 11.985Q141.109 11.775 140.997 11.775Q140.745 11.775 140.157 12.328Q139.569 12.881 138.701 12.881Q138.463 12.881 138.323 12.727Q137.875 12.349 137.721 11.159Q138.505 11.159 138.897 11.103Q139.807 10.977 140.353 10.382Q140.899 9.787 140.899 9.15Q140.899 8.513 140.227 8.079ZM106.627 8.611Q106.095 8.611 105.717 9.213Q105.577 9.423 105.451 10.165Q107.411 10.165 107.411 9.199Q107.411 8.611 106.627 8.611ZM137.973 9.213Q138.351 8.611 138.883 8.611Q139.667 8.611 139.667 9.199Q139.667 10.165 137.707 10.165Q137.833 9.423 137.973 9.213ZM68.617 12.853Q69.569 12.853 69.835 12.027Q69.947 11.635 69.947 11.047Q69.947 8.751 68.589 8.751Q68.001 8.751 67.623 9.367Q67.245 9.983 67.245 10.669Q67.245 11.733 67.665 12.293Q68.085 12.853 68.617 12.853ZM117.036 9.164Q117.337 9.577 117.337 10.592Q117.337 11.607 117.169 12.139Q116.945 12.797 116.175 12.797Q115.405 12.797 115.034 12.265Q114.663 11.733 114.663 10.83Q114.663 9.927 115.055 9.339Q115.447 8.751 116.091 8.751Q116.735 8.751 117.036 9.164ZM47.295 8.779Q47.855 8.779 48.359 9.171Q49.143 9.773 49.143 10.928Q49.143 12.083 48.331 12.643Q47.785 13.049 47.239 13.049Q46.987 13.049 46.749 12.965Q46.749 10.039 46.665 8.891Q46.987 8.779 47.295 8.779ZM81.133 9.171Q80.629 8.779 80.069 8.779Q79.761 8.779 79.439 8.891Q79.523 10.039 79.523 12.965Q79.761 13.049 80.013 13.049Q80.559 13.049 81.105 12.643Q81.917 12.083 81.917 10.928Q81.917 9.773 81.133 9.171ZM61.26 12.454Q60.931 11.929 60.931 11.096Q60.931 10.263 61.379 9.507Q61.603 9.129 61.925 8.961Q62.247 8.793 62.471 8.793Q62.695 8.793 62.835 8.821Q63.199 8.905 63.395 9.493Q63.507 9.787 63.507 10.837Q63.507 11.775 63.157 12.377Q62.807 12.979 62.198 12.979Q61.589 12.979 61.26 12.454ZM102.259 9.024Q102.399 9.185 102.504 9.486Q102.609 9.787 102.609 10.837Q102.609 11.775 102.259 12.377Q101.909 12.979 101.3 12.979Q100.691 12.979 100.362 12.454Q100.033 11.929 100.033 11.096Q100.033 10.263 100.481 9.507Q100.705 9.129 101.027 8.961Q101.349 8.793 101.573 8.793Q101.797 8.793 101.958 8.828Q102.119 8.863 102.259 9.024ZM21.283 9.325Q21.675 8.863 22.473 8.863Q22.991 8.863 23.208 9.269Q23.425 9.675 23.425 10.571Q23.425 11.467 23.159 12.223Q23.019 12.559 22.662 12.825Q22.305 13.091 22.011 13.091Q20.891 13.091 20.891 11.019Q20.891 9.787 21.283 9.325ZM53.721 8.863Q52.923 8.863 52.531 9.325Q52.139 9.787 52.139 11.019Q52.139 13.091 53.259 13.091Q53.553 13.091 53.91 12.825Q54.267 12.559 54.407 12.223Q54.673 11.467 54.673 10.571Q54.673 9.675 54.456 9.269Q54.239 8.863 53.721 8.863ZM85.305 9.325Q85.697 8.863 86.495 8.863Q87.013 8.863 87.23 9.269Q87.447 9.675 87.447 10.571Q87.447 11.467 87.181 12.223Q87.041 12.559 86.684 12.825Q86.327 13.091 86.033 13.091Q84.913 13.091 84.913 11.019Q84.913 9.787 85.305 9.325ZM123.959 9.325Q124.351 8.863 125.149 8.863Q125.667 8.863 125.884 9.269Q126.101 9.675 126.101 10.571Q126.101 11.467 125.835 12.223Q125.695 12.559 125.338 12.825Q124.981 13.091 124.687 13.091Q123.567 13.091 123.567 11.019Q123.567 9.787 123.959 9.325Z" />
    </g>
  </g>
</svg>